<?xml version="1.0" encoding="utf-8"?>
<!-- Generator: Adobe Illustrator 21.0.2, SVG Export Plug-In . SVG Version: 6.00 Build 0)  -->
<svg version="1.1" id="Layer_1" xmlns="http://www.w3.org/2000/svg" xmlns:xlink="http://www.w3.org/1999/xlink" x="0px" y="0px"
	 viewBox="0 0 1646.5 491.6" style="enable-background:new 0 0 1646.5 491.6;" xml:space="preserve">
<style type="text/css">
	.st0{clip-path:url(#SVGID_2_);fill:#FFFFFF;}
	.st1{clip-path:url(#SVGID_4_);fill:#FFFFFF;}
	.st2{clip-path:url(#SVGID_6_);fill:#FFFFFF;}
	.st3{fill:#FFFFFF;}
	.st4{clip-path:url(#SVGID_8_);fill:#FFFFFF;}
</style>
<g>
	<defs>
		<rect id="SVGID_1_" y="40" width="1646.5" height="409.1"/>
	</defs>
	<clipPath id="SVGID_2_">
		<use xlink:href="#SVGID_1_"  style="overflow:visible;"/>
	</clipPath>
	<path class="st0" d="M151.4,385.8h107.5c0,0,23.5,0,23.5-23.5V126.8c0,0,0-23.5-23.5-23.5h-2.2L151.4,385.8z"/>
	<path class="st0" d="M23.5,103.3c0,0-23.5,0-23.5,23.5v235.4c0,0,0,23.5,23.5,23.5h112.8l105.3-282.5H23.5z"/>
</g>
<g>
	<defs>
		<path id="SVGID_3_" d="M23.5,103.3c0,0-23.5,0-23.5,23.5v235.4c0,0,0,23.5,23.5,23.5h112.8l105.3-282.5H23.5z"/>
	</defs>
	<clipPath id="SVGID_4_">
		<use xlink:href="#SVGID_3_"  style="overflow:visible;"/>
	</clipPath>
	<path class="st1" d="M37.9,337.6c-1.1-1-2.4-1.8-3.9-2.3s-2.9-0.8-4.4-0.8c-1.3,0-2.5,0.2-3.8,0.5c-1.2,0.3-2.4,0.8-3.3,1.5
		c-1,0.7-1.8,1.6-2.4,2.6c-0.6,1.1-0.9,2.3-0.9,3.7c0,1.3,0.2,2.4,0.6,3.3c0.4,0.9,1,1.6,1.7,2.3c0.7,0.6,1.4,1.1,2.3,1.5
		c0.9,0.4,1.7,0.7,2.6,1c0.9,0.3,1.7,0.6,2.5,0.8c0.8,0.3,1.5,0.6,2.1,1c0.6,0.3,1.1,0.8,1.4,1.3c0.3,0.5,0.5,1.1,0.5,1.9
		c0,0.8-0.2,1.4-0.5,1.9c-0.3,0.5-0.7,1-1.2,1.3c-0.5,0.3-1.1,0.6-1.7,0.7c-0.6,0.2-1.2,0.2-1.8,0.2c-1.1,0-2.3-0.3-3.4-0.8
		c-1.2-0.5-2.1-1.3-2.8-2.3l-3.6,3.4c1.1,1.3,2.6,2.4,4.3,3c1.8,0.7,3.6,1,5.4,1c1.4,0,2.7-0.2,4-0.5c1.3-0.4,2.4-0.9,3.3-1.7
		c0.9-0.8,1.7-1.7,2.2-2.8c0.5-1.1,0.8-2.5,0.8-4c0-1.4-0.3-2.5-0.8-3.5c-0.5-0.9-1.2-1.7-2-2.3c-0.8-0.6-1.7-1.1-2.7-1.5
		c-1-0.4-1.9-0.7-2.8-1c-0.8-0.2-1.5-0.5-2.2-0.7c-0.7-0.3-1.2-0.5-1.7-0.8c-0.5-0.3-0.8-0.7-1.1-1.2c-0.3-0.5-0.4-1-0.4-1.6
		c0-0.7,0.2-1.3,0.5-1.8c0.3-0.5,0.7-0.9,1.2-1.2c0.5-0.3,1-0.5,1.6-0.7c0.6-0.1,1.2-0.2,1.8-0.2c1,0,2,0.2,2.9,0.7
		c1,0.5,1.7,1.1,2.2,1.8L37.9,337.6z M45.2,363.6H50v-22.7h0.1l8.5,22.7H62l8.6-22.7h0.1v22.7h5v-28.3h-7.9l-7.3,20.1h-0.1L53,335.3
		h-7.9V363.6z"/>
</g>
<g>
	<defs>
		<rect id="SVGID_5_" y="40" width="1646.5" height="409.1"/>
	</defs>
	<clipPath id="SVGID_6_">
		<use xlink:href="#SVGID_5_"  style="overflow:visible;"/>
	</clipPath>
	<path class="st2" d="M1449.8,280.6c-3.9,11.2-9.7,21.1-17.2,29.4c-7.5,8.3-16.6,15-27.2,19.9c-10.6,4.9-22.7,7.4-36.1,7.4
		s-25.5-2.5-35.9-7.4c-10.5-4.9-19.5-11.6-27-19.9c-7.5-8.3-13.2-18.2-17.2-29.4c-3.9-11.3-5.9-23.5-5.9-36.5c0-12.7,2-24.8,5.9-36
		c4-11.2,9.7-21.1,17.2-29.4c7.5-8.3,16.5-14.9,27-19.7c10.5-4.8,22.6-7.2,36-7.2s25.5,2.4,36.2,7.2c10.6,4.8,19.8,11.4,27.2,19.7
		c7.5,8.3,13.3,18.3,17.2,29.4c4,11.2,5.9,23.4,5.9,36C1455.7,257.1,1453.7,269.3,1449.8,280.6 M1470.4,244.1
		c0-15.5-2.4-30-7.3-42.9c-4.9-12.9-11.9-24.2-20.8-33.5c-8.9-9.3-19.7-16.7-32.1-21.9c-12.4-5.2-26.1-7.9-40.9-7.9
		c-14.7,0-28.4,2.7-40.7,7.9c-12.2,5.2-23,12.6-31.9,21.9c-9,9.3-16,20.6-20.8,33.5c-4.8,12.9-7.3,27.3-7.3,42.9
		c0,15.6,2.5,30.1,7.3,43.1c4.9,13,11.9,24.5,20.8,33.9c8.9,9.5,19.7,16.9,32,22.2c12.3,5.2,26,7.9,40.7,7.9
		c14.7,0,28.5-2.7,40.9-7.9c12.4-5.3,23.3-12.7,32.2-22.2c8.9-9.4,15.9-20.8,20.8-33.9C1468,274.2,1470.4,259.7,1470.4,244.1"/>
	<path class="st2" d="M760,281.5c-4,11.3-9.7,21.3-17,29.6c-7.3,8.3-16.3,15.1-26.8,20c-10.5,4.9-22.4,7.4-35.4,7.4
		c-12.5,0-24.1-2.5-34.6-7.4c-10.5-5-19.7-11.7-27.3-20.1c-7.6-8.4-13.7-18.4-18.1-29.7c-4.4-11.4-6.6-23.5-6.6-36.2
		c0-12.7,2.2-24.8,6.6-36.2c4.4-11.3,10.5-21.3,18.1-29.7c7.6-8.4,16.8-15.2,27.3-20.1c10.4-4.9,22-7.4,34.6-7.4
		c13.1,0,25,2.6,35.4,7.6c10.4,5.1,19.5,12,26.8,20.5c7.4,8.5,13.1,18.6,17,29.9c4,11.3,6,23.3,6,35.8
		C766,258.1,764,270.2,760,281.5 M781,245.6c0-15.4-2.4-29.8-7.2-42.9c-4.8-13.1-11.7-24.6-20.5-34.1c-8.8-9.5-19.6-17.1-31.9-22.5
		c-12.3-5.4-26-8.2-40.7-8.2c-19.1,0-36.9,5.2-53,15.4c-13.7,8.7-24.8,21.1-33.2,37v-46.5h-15.4v305.2h15.5V301.2
		c3.1,6.1,6.8,11.7,11.1,16.7c6.4,7.5,13.6,13.8,21.4,18.9c7.8,5.1,16.4,9.1,25.6,11.7c9.1,2.6,18.5,4,28.1,4
		c14.4,0,28-2.7,40.3-8.2c12.3-5.4,23.1-13,31.9-22.5c8.8-9.5,15.8-20.9,20.7-33.9C778.5,274.9,781,260.7,781,245.6"/>
	<path class="st2" d="M991.7,281.5c-3.9,11.3-9.7,21.3-17,29.6c-7.3,8.3-16.3,15.1-26.8,20c-10.5,4.9-22.4,7.4-35.5,7.4
		c-12.5,0-24.1-2.5-34.5-7.4c-10.5-5-19.7-11.7-27.3-20.1c-7.6-8.4-13.7-18.4-18.1-29.7c-4.4-11.4-6.6-23.5-6.6-36.2
		c0-12.7,2.2-24.8,6.6-36.2c4.4-11.3,10.5-21.3,18.1-29.7c7.6-8.4,16.8-15.2,27.3-20.1c10.4-4.9,22-7.4,34.5-7.4
		c13.1,0,25,2.6,35.4,7.6c10.4,5.1,19.5,12,26.8,20.5c7.4,8.5,13.1,18.6,17,29.9c4,11.3,6,23.4,6,35.8
		C997.7,258,995.7,270.1,991.7,281.5 M1012.8,245.6c0-15.4-2.4-29.8-7.2-42.9c-4.7-13.1-11.6-24.6-20.5-34.1
		c-8.9-9.5-19.6-17.1-31.9-22.5c-12.3-5.4-26.1-8.2-40.8-8.2c-19.1,0-36.9,5.2-53,15.4c-13.7,8.7-24.8,21.1-33.1,37v-46.5h-15.4
		v305.2h15.5V301.2c3.1,6.1,6.8,11.7,11.1,16.7c6.3,7.5,13.6,13.8,21.4,18.9c7.8,5.1,16.4,9.1,25.5,11.7c9.1,2.6,18.5,4,28.1,4
		c14.4,0,28-2.7,40.4-8.2c12.3-5.4,23-13,31.9-22.5c8.8-9.5,15.8-20.9,20.7-33.9C1010.3,274.9,1012.8,260.7,1012.8,245.6"/>
</g>
<polygon class="st3" points="1630.4,144 1564.2,330.1 1496.2,145.9 1495.5,144 1479.3,144 1556.6,349.2 1520.7,449.1 1535.3,449.1 
	1645.1,147.9 1646.5,144 "/>
<g>
	<defs>
		<rect id="SVGID_7_" y="40" width="1646.5" height="409.1"/>
	</defs>
	<clipPath id="SVGID_8_">
		<use xlink:href="#SVGID_7_"  style="overflow:visible;"/>
	</clipPath>
	<path class="st4" d="M527.6,280.5c-4.4,11.2-10.5,21.2-18.1,29.5c-7.6,8.3-16.8,15-27.3,20c-10.4,4.9-22.1,7.4-34.6,7.4
		c-13.1,0-25-2.5-35.4-7.4c-10.5-5-19.5-11.7-26.8-20c-7.4-8.3-13.1-18.2-17-29.4c-4-11.3-6-23.3-6-35.6c0-12.3,2-24.3,6-35.6
		c4-11.2,9.7-21.2,17-29.7c7.3-8.4,16.4-15.3,26.8-20.3c10.4-5.1,22.4-7.6,35.4-7.6c12.5,0,24.1,2.5,34.6,7.4
		c10.5,4.9,19.7,11.6,27.3,20c7.6,8.4,13.7,18.3,18.1,29.5c4.4,11.3,6.6,23.4,6.6,36C534.2,257.2,532,269.3,527.6,280.5
		 M549.3,345.3V143.9h-15.4v46.2c-8.4-15.8-19.5-28.2-33.2-36.8c-16.1-10.2-33.9-15.3-53-15.3c-14.7,0-28.4,2.7-40.8,8.1
		c-12.3,5.4-23,12.9-31.9,22.4c-8.8,9.5-15.7,20.9-20.5,33.9c-4.8,13-7.2,27.4-7.2,42.6c0,15,2.5,29.2,7.4,42.1
		c5,12.9,11.9,24.3,20.7,33.6c8.8,9.5,19.5,17,31.9,22.4c12.3,5.4,25.9,8.1,40.3,8.1c9.6,0,19-1.3,28.1-4
		c9.2-2.6,17.8-6.5,25.6-11.6c7.8-5.1,15-11.4,21.4-18.8c4.3-5,8-10.5,11.1-16.6v45.1H549.3z"/>
	<path class="st4" d="M1109.7,329.9c-10.5-4.9-19.7-11.7-27.3-20.1c-7.6-8.4-13.7-18.4-18.1-29.7c-4.4-11.4-6.6-23.5-6.6-36.2
		c0-12.7,2.2-24.8,6.6-36.2c4.4-11.2,10.5-21.2,18.1-29.7c7.6-8.4,16.8-15.1,27.3-20.1c10.5-4.9,22.1-7.4,34.5-7.4
		c13,0,25,2.5,35.4,7.4c10.5,4.9,19.5,11.7,26.8,20c7.3,8.4,13.1,18.4,17,29.6c4,11.4,6,23.4,6,35.9c0,12.5-2,24.5-6,35.9
		c-4,11.3-9.7,21.3-17,29.8c-7.3,8.5-16.4,15.4-26.8,20.5c-10.4,5.1-22.4,7.6-35.4,7.6C1131.7,337.3,1120.1,334.8,1109.7,329.9
		 M1244.5,243.5c0-15.1-2.5-29.3-7.4-42.3c-4.9-13-11.9-24.4-20.7-33.8c-8.8-9.5-19.5-17.1-31.9-22.5c-12.3-5.4-25.9-8.2-40.4-8.2
		c-9.6,0-19,1.3-28.1,4c-9.1,2.6-17.7,6.5-25.6,11.7c-7.8,5.1-15,11.5-21.4,18.9c-4.3,5-8,10.6-11.1,16.7V40h-15.5v305.2h15.4v-46.5
		c8.3,15.9,19.4,28.3,33.1,37c16.1,10.2,33.9,15.4,53,15.4c14.8,0,28.5-2.7,40.7-8.2c12.3-5.4,23-13,31.9-22.5
		c8.8-9.5,15.7-21,20.5-34.1C1242.1,273.3,1244.5,258.8,1244.5,243.5"/>
</g>
</svg>
